<svg viewBox="0 0 900 540" xmlns="http://www.w3.org/2000/svg" font-family="-apple-system, 'Segoe UI', 'Microsoft YaHei', sans-serif">
  <defs>
    <marker id="arr25g" markerWidth="10" markerHeight="10" refX="8" refY="5" orient="auto">
      <path d="M0,0 L9,5 L0,10 z" fill="#b8862e"/>
    </marker>
    <marker id="arr25r" markerWidth="10" markerHeight="10" refX="8" refY="5" orient="auto">
      <path d="M0,0 L9,5 L0,10 z" fill="#b3402e"/>
    </marker>
    <marker id="arr25d" markerWidth="9" markerHeight="9" refX="7" refY="4.5" orient="auto">
      <path d="M0,0 L8,4.5 L0,9 z" fill="#7a7468"/>
    </marker>
  </defs>
  <rect x="0" y="0" width="900" height="540" rx="10" fill="#f7f5f0"/>
  <text x="450" y="36" text-anchor="middle" font-size="17" fill="#4a463f" font-weight="bold">账单的走向：冒泡、拦截与空处直达</text>

  <!-- ============ 实体树 ============ -->
  <!-- 台口（窗口实体，终点站） -->
  <rect x="290" y="76" width="220" height="50" rx="10" fill="#ffffff" stroke="#4a463f" stroke-width="2"/>
  <text x="400" y="102" text-anchor="middle" font-size="14.5" fill="#4a463f" font-weight="bold">台口</text>
  <text x="400" y="118" text-anchor="middle" font-size="10.5" fill="#7a7468">窗口实体——冒泡终点站</text>

  <!-- 台口—货架：不是 ChildOf，是传播规则的「跳窗口」一步 -->
  <line x1="400" y1="126" x2="400" y2="216" stroke="#7a7468" stroke-width="1.8" stroke-dasharray="6 4"/>
  <text x="413" y="160" font-size="10.5" fill="#7a7468">父链到头，</text>
  <text x="413" y="176" font-size="10.5" fill="#7a7468">跳到窗口实体</text>

  <!-- 货架 -->
  <rect x="290" y="216" width="220" height="50" rx="10" fill="#ffffff" stroke="#4a463f" stroke-width="2"/>
  <text x="400" y="242" text-anchor="middle" font-size="14.5" fill="#4a463f" font-weight="bold">货架</text>
  <text x="400" y="258" text-anchor="middle" font-size="10.5" fill="#7a7468">父实体——总账挂这儿</text>

  <!-- ChildOf 两支 -->
  <line x1="352" y1="266" x2="268" y2="366" stroke="#7a7468" stroke-width="1.8"/>
  <line x1="448" y1="266" x2="532" y2="366" stroke="#7a7468" stroke-width="1.8"/>
  <text x="252" y="322" font-size="10" fill="#9a9280" font-family="Consolas, monospace">ChildOf</text>
  <text x="516" y="352" font-size="10" fill="#9a9280" font-family="Consolas, monospace">ChildOf</text>

  <!-- 鎏金锣 / 琉璃盏 -->
  <rect x="160" y="366" width="180" height="50" rx="10" fill="#ffffff" stroke="#4a463f" stroke-width="2"/>
  <text x="250" y="392" text-anchor="middle" font-size="14.5" fill="#4a463f" font-weight="bold">鎏金锣</text>
  <text x="250" y="408" text-anchor="middle" font-size="10.5" fill="#7a7468">照单全记，账单继续上行</text>
  <rect x="460" y="366" width="180" height="50" rx="10" fill="#ffffff" stroke="#4a463f" stroke-width="2"/>
  <text x="550" y="392" text-anchor="middle" font-size="14.5" fill="#4a463f" font-weight="bold">琉璃盏</text>
  <text x="550" y="408" text-anchor="middle" font-size="10.5" fill="#7a7468">易碎——这笔账到我为止</text>

  <!-- ============ 走向一：点锣，冒泡三连 ============ -->
  <path d="M212,478 L232,424" stroke="#b8862e" stroke-width="3" fill="none" marker-end="url(#arr25g)"/>
  <text x="204" y="500" text-anchor="middle" font-size="12" fill="#8a6a1e" font-weight="bold">点鎏金锣</text>
  <path d="M282,362 C 300,330 322,296 344,272" stroke="#b8862e" stroke-width="3" fill="none" marker-end="url(#arr25g)"/>
  <path d="M372,212 C 366,186 366,160 376,132" stroke="#b8862e" stroke-width="3" fill="none" marker-end="url(#arr25g)"/>
  <!-- 三站的「敲响」标记 + 序号 -->
  <g stroke="#b8862e" stroke-width="2" fill="none">
    <path d="M168,362 L160,352"/><path d="M178,358 L174,346"/><path d="M160,374 L148,370"/>
    <path d="M298,212 L290,202"/><path d="M308,208 L304,196"/><path d="M290,224 L278,220"/>
    <path d="M298,72 L290,62"/><path d="M308,68 L304,56"/><path d="M290,84 L278,80"/>
  </g>
  <circle cx="148" cy="391" r="12" fill="#b8862e"/>
  <text x="148" y="396" text-anchor="middle" font-size="12" fill="#ffffff" font-weight="bold">1</text>
  <circle cx="278" cy="241" r="12" fill="#b8862e"/>
  <text x="278" y="246" text-anchor="middle" font-size="12" fill="#ffffff" font-weight="bold">2</text>
  <circle cx="278" cy="101" r="12" fill="#b8862e"/>
  <text x="278" y="106" text-anchor="middle" font-size="12" fill="#ffffff" font-weight="bold">3</text>

  <!-- ============ 走向二：点盏，propagate(false) 拦截 ============ -->
  <path d="M588,478 L568,424" stroke="#b3402e" stroke-width="3" fill="none" marker-end="url(#arr25r)"/>
  <text x="598" y="500" text-anchor="middle" font-size="12" fill="#b3402e" font-weight="bold">点琉璃盏</text>
  <path d="M518,362 C 508,346 500,334 492,324" stroke="#b3402e" stroke-width="3" fill="none" marker-end="url(#arr25r)"/>
  <!-- 红色停止牌（八角） -->
  <polygon points="473,276 491,276 504,289 504,307 491,320 473,320 460,307 460,289"
           fill="#b3402e" stroke="#ffffff" stroke-width="2.5"/>
  <text x="482" y="304" text-anchor="middle" font-size="13" fill="#ffffff" font-weight="bold">停</text>
  <text x="524" y="290" font-size="11.5" fill="#b3402e" font-family="Consolas, monospace">propagate(false)</text>
  <text x="524" y="307" font-size="10.5" fill="#7a7468">账单止步，货架与台口不知情</text>

  <!-- ============ 走向三：点空处，直达台口 ============ -->
  <circle cx="760" cy="390" r="17" fill="none" stroke="#7a7468" stroke-width="1.8" stroke-dasharray="4 3"/>
  <path d="M756,382 L756,396 L760,392 L763,398 L766,396 L763,391 L768,391 z" fill="#4a463f"/>
  <text x="760" y="428" text-anchor="middle" font-size="12" fill="#4a463f" font-weight="bold">点空处</text>
  <path d="M760,372 C 764,240 660,120 516,98" stroke="#7a7468" stroke-width="2.4" fill="none" stroke-dasharray="7 5" marker-end="url(#arr25d)"/>
  <text x="756" y="212" font-size="10.5" fill="#7a7468">窗口后端的直接命中</text>
  <text x="756" y="228" font-size="10.5" fill="#7a7468">——不是冒泡</text>

  <text x="450" y="524" text-anchor="middle" font-size="11.5" fill="#7a7468">冒泡途中 entity 随站更新（锣→货架→台口），original_event_target() 一路不变（起头都是鎏金锣）</text>
</svg>
