<svg viewBox="0 0 840 470" xmlns="http://www.w3.org/2000/svg" font-family="-apple-system, 'Segoe UI', 'Microsoft YaHei', sans-serif">
  <defs>
    <marker id="arr-n24" markerWidth="9" markerHeight="9" refX="7" refY="4.5" orient="auto">
      <path d="M0,0 L8,4.5 L0,9 z" fill="#274a91"/>
    </marker>
    <marker id="arr-t24" markerWidth="9" markerHeight="9" refX="7" refY="4.5" orient="auto">
      <path d="M0,0 L8,4.5 L0,9 z" fill="#c05a2e"/>
    </marker>
    <marker id="arr-b24" markerWidth="9" markerHeight="9" refX="7" refY="4.5" orient="auto">
      <path d="M0,0 L8,4.5 L0,9 z" fill="#3c7a4e"/>
    </marker>
    <marker id="arr-px24" markerWidth="8" markerHeight="8" refX="6" refY="4" orient="auto">
      <path d="M0,0 L7,4 L0,8 z" fill="#2b2b46"/>
    </marker>
    <marker id="arr-link24" markerWidth="9" markerHeight="9" refX="7" refY="4.5" orient="auto">
      <path d="M0,0 L8,4.5 L0,9 z" fill="#7a7468"/>
    </marker>
  </defs>
  <rect x="0" y="0" width="840" height="470" rx="10" fill="#f7f5f0"/>

  <text x="420" y="34" text-anchor="middle" font-size="16" fill="#4a463f" font-weight="bold">法线贴图的向量活在 TBN 坐标系里</text>

  <!-- ============ 左：微弯的表面 + 三根轴 ============ -->
  <!-- 曲面片（微弯，带 UV 网格线） -->
  <path d="M60,310 C 150,258 300,246 420,280 L 396,392 C 290,352 160,362 78,408 z"
        fill="#ffffff" stroke="#7a7468" stroke-width="1.6"/>
  <!-- u 向网格线（顺 T） -->
  <g stroke="#c9c2b2" stroke-width="1" fill="none">
    <path d="M66,342 C 154,292 298,281 412,316"/>
    <path d="M72,375 C 158,326 294,316 404,353"/>
  </g>
  <!-- v 向网格线（顺 B） -->
  <g stroke="#c9c2b2" stroke-width="1" fill="none">
    <path d="M150,262 L 132,384"/>
    <path d="M240,250 L 228,368"/>
    <path d="M330,254 L 322,372"/>
  </g>
  <text x="92" y="436" font-size="11" fill="#7a7468">一块微弯的表面（贴着法线贴图）</text>

  <!-- 原点：表面中央一点 -->
  <circle cx="245" cy="308" r="4.5" fill="#4a463f"/>

  <!-- N：沿表面法线朝外（微弯处的垂直方向） -->
  <path d="M245,308 L233,180" stroke="#274a91" stroke-width="3.2" fill="none" marker-end="url(#arr-n24)"/>
  <text x="206" y="166" font-size="14" fill="#274a91" font-weight="bold">N</text>
  <text x="228" y="166" font-size="11.5" fill="#274a91">法线：朝表面外</text>

  <!-- T：顺贴图 u 方向 -->
  <path d="M245,308 L392,290" stroke="#c05a2e" stroke-width="3.2" fill="none" marker-end="url(#arr-t24)"/>
  <text x="360" y="268" font-size="14" fill="#c05a2e" font-weight="bold">T</text>
  <text x="378" y="268" font-size="11.5" fill="#c05a2e">切线：顺贴图 u 方向</text>

  <!-- B：与 N、T 都垂直 -->
  <path d="M245,308 L152,368" stroke="#3c7a4e" stroke-width="3.2" fill="none" marker-end="url(#arr-b24)"/>
  <text x="120" y="392" font-size="14" fill="#3c7a4e" font-weight="bold">B</text>
  <text x="138" y="392" font-size="11.5" fill="#3c7a4e">副切线：与两者垂直</text>

  <!-- 贴图 v 方向小注（u 方向即 T，标签里已说） -->
  <text x="318" y="372" font-size="10.5" fill="#9a9280">v ↓</text>

  <!-- ============ 右：法线贴图像素放大 ============ -->
  <rect x="520" y="96" width="240" height="240" rx="8" fill="#8f8fe8" stroke="#7a7468" stroke-width="1.6"/>
  <g stroke="#a7a7ef" stroke-width="1.2">
    <line x1="600" y1="96" x2="600" y2="336"/>
    <line x1="680" y1="96" x2="680" y2="336"/>
    <line x1="520" y1="176" x2="760" y2="176"/>
    <line x1="520" y1="256" x2="760" y2="256"/>
  </g>
  <!-- 九格像素向量：中央出屏（点圈），边缘向外倾 -->
  <g stroke="#2b2b46" stroke-width="2.4" fill="none">
    <path d="M566,142 L544,120" marker-end="url(#arr-px24)"/>
    <path d="M640,146 L640,116" marker-end="url(#arr-px24)"/>
    <path d="M714,142 L736,120" marker-end="url(#arr-px24)"/>
    <path d="M556,216 L528,216" marker-end="url(#arr-px24)"/>
    <path d="M724,216 L752,216" marker-end="url(#arr-px24)"/>
    <path d="M566,290 L544,312" marker-end="url(#arr-px24)"/>
    <path d="M640,286 L640,316" marker-end="url(#arr-px24)"/>
    <path d="M714,290 L736,312" marker-end="url(#arr-px24)"/>
  </g>
  <!-- 中央像素：向量正对观众（出屏符号 ⊙） -->
  <circle cx="640" cy="216" r="11" fill="none" stroke="#2b2b46" stroke-width="2.4"/>
  <circle cx="640" cy="216" r="3" fill="#2b2b46"/>

  <text x="640" y="362" text-anchor="middle" font-size="12" fill="#4a463f" font-weight="bold">法线贴图的像素放大</text>
  <text x="640" y="381" text-anchor="middle" font-size="10.5" fill="#7a7468">每个像素的 RGB 编码一根法线：r→x（沿 T）、g→y（沿 B）、b→z（沿 N）</text>
  <text x="640" y="398" text-anchor="middle" font-size="10.5" fill="#7a7468">(128, 128, 255) = 不偏不倚 = 原法线——标志性的浅紫蓝底</text>

  <!-- 两侧连接：像素向量在 TBN 里摆动（低位近水平，穿过 T 标签下方的空档） -->
  <path d="M516,300 C 470,318 436,326 392,326" stroke="#7a7468" stroke-width="1.6" fill="none" stroke-dasharray="6 4" marker-end="url(#arr-link24)"/>
  <text x="508" y="350" text-anchor="end" font-size="10.5" fill="#7a7468">向量在 TBN 里摆动</text>

  <text x="420" y="452" text-anchor="middle" font-size="11" fill="#7a7468">N、UV 坯子里都有；T 不是标配——缺了 T，整套坐标系立不起来（本节的坑）</text>
</svg>
