<svg viewBox="0 0 1080 420" xmlns="http://www.w3.org/2000/svg" font-family="-apple-system, 'Segoe UI', 'Microsoft YaHei', sans-serif">
  <defs>
    <marker id="arr26taa" markerWidth="9" markerHeight="9" refX="7" refY="4.5" orient="auto">
      <path d="M0,0 L8,4.5 L0,9 z" fill="#7a7468"/>
    </marker>
    <marker id="arr26taar" markerWidth="9" markerHeight="9" refX="7" refY="4.5" orient="auto">
      <path d="M0,0 L8,4.5 L0,9 z" fill="#b3402e"/>
    </marker>
  </defs>
  <rect x="0" y="0" width="1080" height="420" rx="10" fill="#f7f5f0"/>
  <text x="540" y="32" text-anchor="middle" font-size="17" fill="#4a463f" font-weight="bold">TAA 三件事：抖动采样、按运动向量对齐历史、加权混合</text>

  <!-- ============ 格一：亚像素抖动 ============ -->
  <g>
    <rect x="24" y="56" width="330" height="308" rx="8" fill="#ffffff" stroke="#c9c2b2" stroke-width="1.4"/>
    <text x="189" y="82" text-anchor="middle" font-size="13.5" fill="#4a463f" font-weight="bold">① 亚像素抖动</text>

    <rect x="60" y="140" width="220" height="150" fill="none" stroke="#4a463f" stroke-width="1.6"/>
    <line x1="170" y1="140" x2="170" y2="290" stroke="#ded8ca" stroke-width="1"/>
    <line x1="60" y1="215" x2="280" y2="215" stroke="#ded8ca" stroke-width="1"/>

    <!-- 连续四帧的采样点，各偏移不到半个像素，围绕格心 -->
    <circle cx="165" cy="210" r="4" fill="#274a91"/>
    <circle cx="178" cy="207" r="4" fill="#b8862e"/>
    <circle cx="172" cy="221" r="4" fill="#1d6b40"/>
    <circle cx="160" cy="217" r="4" fill="#8a4a91"/>
    <path d="M165,210 L178,207 L172,221 L160,217 Z" fill="none" stroke="#9a9280" stroke-width="1" stroke-dasharray="3 2"/>

    <text x="189" y="322" text-anchor="middle" font-size="10.5" fill="#7a7468">同一像素格，连续四帧</text>
    <text x="189" y="338" text-anchor="middle" font-size="10.5" fill="#7a7468">各偏移不到半个像素取样</text>
    <text x="189" y="354" text-anchor="middle" font-size="10" fill="#9a9280">TemporalJitter 负责这份偏移</text>
  </g>

  <!-- ============ 格二：运动向量 ============ -->
  <g>
    <rect x="374" y="56" width="330" height="308" rx="8" fill="#ffffff" stroke="#c9c2b2" stroke-width="1.4"/>
    <text x="539" y="82" text-anchor="middle" font-size="13.5" fill="#4a463f" font-weight="bold">② 运动向量找历史</text>

    <rect x="410" y="140" width="260" height="150" fill="none" stroke="#4a463f" stroke-width="1.6"/>
    <!-- 上一帧位置（虚） -->
    <rect x="430" y="230" width="34" height="34" fill="none" stroke="#9a9280" stroke-width="1.6" stroke-dasharray="4 3"/>
    <text x="447" y="278" text-anchor="middle" font-size="9.5" fill="#9a9280">上一帧</text>
    <!-- 当前帧位置（实） -->
    <rect x="586" y="166" width="34" height="34" fill="#efe0c4" stroke="#b8862e" stroke-width="1.8"/>
    <text x="603" y="216" text-anchor="middle" font-size="9.5" fill="#8a6a1e">当前帧</text>
    <!-- 箭头：从当前指回上一帧 -->
    <path d="M590,196 C 540,210 490,222 466,240" stroke="#274a91" stroke-width="2.2" fill="none"
          stroke-dasharray="6 4" marker-end="url(#arr26taa)"/>
    <text x="540" y="200" text-anchor="middle" font-size="10" fill="#274a91">到上一帧去找我自己</text>

    <text x="539" y="322" text-anchor="middle" font-size="10.5" fill="#7a7468">MotionVectorPrepass 记下每个像素</text>
    <text x="539" y="338" text-anchor="middle" font-size="10.5" fill="#7a7468">这一帧相对上一帧挪了多远</text>
  </g>

  <!-- ============ 格三：历史混合 + ghosting ============ -->
  <g>
    <rect x="724" y="56" width="332" height="308" rx="8" fill="#ffffff" stroke="#c9c2b2" stroke-width="1.4"/>
    <text x="890" y="82" text-anchor="middle" font-size="13.5" fill="#4a463f" font-weight="bold">③ 历史混合</text>

    <rect x="760" y="132" width="260" height="96" fill="none" stroke="#4a463f" stroke-width="1.4"/>
    <text x="890" y="122" text-anchor="middle" font-size="10.5" fill="#7a7468">当前帧 + 历史帧 按权重叠加</text>
    <!-- 边缘平滑输出：锯齿变过渡 -->
    <path d="M770,220 L820,220 L820,175 L870,175 L870,220 L1010,220" stroke="#1d6b40" stroke-width="3" fill="none"/>
    <path d="M770,220 L845,220 L845,175 L1010,175" stroke="#9a9280" stroke-width="1.6" stroke-dasharray="4 3" fill="none"/>
    <text x="890" y="246" text-anchor="middle" font-size="10" fill="#1d6b40">输出：平滑的边缘</text>

    <!-- 副作用：ghosting -->
    <rect x="760" y="264" width="260" height="76" rx="6" fill="#fbeee8" stroke="#b3402e" stroke-width="1.6"/>
    <text x="890" y="284" text-anchor="middle" font-size="11.5" fill="#b3402e" font-weight="bold">副作用：ghosting</text>
    <!-- 快速移动物体：实体+多层残影 -->
    <rect x="800" y="296" width="22" height="30" fill="#c9776a" fill-opacity="0.35"/>
    <rect x="812" y="296" width="22" height="30" fill="#c9776a" fill-opacity="0.55"/>
    <rect x="824" y="296" width="22" height="30" fill="#8a2a1e"/>
    <path d="M850,311 L900,311" stroke="#b3402e" stroke-width="1.6" fill="none" marker-end="url(#arr26taar)"/>
    <text x="960" y="316" font-size="9.5" fill="#b3402e">快速移动时旧帧</text>
    <text x="960" y="330" font-size="9.5" fill="#b3402e">残影拖尾</text>
  </g>

  <text x="540" y="398" text-anchor="middle" font-size="11.5" fill="#7a7468">三步连起来：每帧的采样点都不一样，靠运动向量把新旧对齐，再混合成一张更干净的画——代价是历史用错了地方就变成拖影</text>
</svg>
