<svg viewBox="0 0 880 470" xmlns="http://www.w3.org/2000/svg" font-family="system-ui, 'Segoe UI', 'Microsoft YaHei', sans-serif">
  <defs>
    <marker id="arr28a" markerWidth="9" markerHeight="9" refX="7" refY="4.5" orient="auto">
      <path d="M0,0 L8,4.5 L0,9 z" fill="#9a9280"/>
    </marker>
  </defs>
  <rect x="0" y="0" width="880" height="470" rx="10" fill="#f7f5f0"/>
  <text x="440" y="32" text-anchor="middle" font-size="17" fill="#4a463f" font-weight="bold">布局在一帧里的位置——三把量尺，两种读数</text>

  <!-- ============ 调度带 ============ -->
  <!-- Startup -->
  <rect x="36" y="118" width="140" height="60" rx="7" fill="#ffffff" stroke="#c9c2b2" stroke-width="1.6"/>
  <text x="106" y="143" text-anchor="middle" font-size="13.5" fill="#4a463f" font-weight="bold">Startup</text>
  <text x="106" y="162" text-anchor="middle" font-size="10.5" fill="#7a7468">开台，只跑一次</text>
  <path d="M180,148 L200,148" stroke="#9a9280" stroke-width="1.8" fill="none" marker-end="url(#arr28a)"/>

  <!-- 第 1 帧 -->
  <rect x="204" y="92" width="420" height="100" rx="9" fill="none" stroke="#b8862e" stroke-width="1.8"/>
  <text x="220" y="110" font-size="12" fill="#8a6a1e" font-weight="bold">第 1 帧</text>
  <rect x="220" y="118" width="118" height="60" rx="7" fill="#ffffff" stroke="#c9c2b2" stroke-width="1.6"/>
  <text x="279" y="143" text-anchor="middle" font-size="13.5" fill="#4a463f" font-weight="bold">Update</text>
  <text x="279" y="162" text-anchor="middle" font-size="10.5" fill="#7a7468">游戏逻辑改意图</text>
  <path d="M342,148 L360,148" stroke="#9a9280" stroke-width="1.8" fill="none" marker-end="url(#arr28a)"/>
  <rect x="364" y="118" width="244" height="60" rx="7" fill="#ffffff" stroke="#c9c2b2" stroke-width="1.6"/>
  <text x="486" y="134" text-anchor="middle" font-size="12.5" fill="#4a463f" font-weight="bold">PostUpdate</text>
  <rect x="376" y="142" width="164" height="28" rx="5" fill="#efe0c4" stroke="#b8862e" stroke-width="1.8"/>
  <text x="458" y="156" text-anchor="middle" font-size="10.5" fill="#8a6a1e" font-family="Consolas, monospace">UiSystems::Layout</text>
  <text x="458" y="167" text-anchor="middle" font-size="9" fill="#8a6a1e">布局结算</text>
  <text x="574" y="160" text-anchor="middle" font-size="12" fill="#9a9280">…</text>

  <!-- 第 2 帧 -->
  <path d="M628,148 L648,148" stroke="#9a9280" stroke-width="1.8" fill="none" marker-end="url(#arr28a)"/>
  <rect x="652" y="92" width="196" height="100" rx="9" fill="none" stroke="#9a9280" stroke-width="1.5" stroke-dasharray="6 4"/>
  <text x="668" y="110" font-size="12" fill="#7a7468" font-weight="bold">第 2 帧</text>
  <rect x="668" y="118" width="96" height="34" rx="6" fill="none" stroke="#9a9280" stroke-width="1.3" stroke-dasharray="4 3"/>
  <text x="716" y="140" text-anchor="middle" font-size="12" fill="#7a7468">Update</text>
  <text x="782" y="140" font-size="12" fill="#9a9280">……</text>
  <text x="758" y="172" text-anchor="middle" font-size="10" fill="#7a7468">这儿再量：读到的是</text>
  <text x="758" y="186" text-anchor="middle" font-size="10" fill="#7a7468">上一帧的结算</text>

  <!-- ============ 三把量尺 ============ -->
  <circle cx="106" cy="178" r="3.2" fill="#b3402e"/>
  <path d="M106,181 L106,238" stroke="#b3402e" stroke-width="1.5" stroke-dasharray="4 3" fill="none"/>
  <rect x="30" y="240" width="182" height="84" rx="8" fill="#ffffff" stroke="#b3402e" stroke-width="1.6"/>
  <text x="121" y="262" text-anchor="middle" font-size="12" fill="#b3402e" font-weight="bold">量尺 ①　开台量一次</text>
  <text x="121" y="284" text-anchor="middle" font-size="13" fill="#b3402e" font-family="Consolas, monospace">size = 0×0</text>
  <text x="121" y="308" text-anchor="middle" font-size="10.5" fill="#7a7468">布局一次都还没跑</text>

  <circle cx="279" cy="178" r="3.2" fill="#b3402e"/>
  <path d="M279,181 L279,238 L300,238 L300,336" stroke="#b3402e" stroke-width="1.5" stroke-dasharray="4 3" fill="none"/>
  <rect x="222" y="338" width="182" height="84" rx="8" fill="#ffffff" stroke="#b3402e" stroke-width="1.6"/>
  <text x="313" y="360" text-anchor="middle" font-size="12" fill="#b3402e" font-weight="bold">量尺 ②　Update 里量</text>
  <text x="313" y="382" text-anchor="middle" font-size="13" fill="#b3402e" font-family="Consolas, monospace">size = 0×0</text>
  <text x="313" y="406" text-anchor="middle" font-size="10.5" fill="#7a7468">当帧结算还没开始</text>

  <circle cx="560" cy="178" r="3.2" fill="#1d6b40"/>
  <path d="M560,181 L560,238" stroke="#1d6b40" stroke-width="1.5" stroke-dasharray="4 3" fill="none"/>
  <rect x="446" y="240" width="252" height="98" rx="8" fill="#ffffff" stroke="#1d6b40" stroke-width="1.8"/>
  <text x="572" y="262" text-anchor="middle" font-size="12" fill="#1d6b40" font-weight="bold">量尺 ③　排在 Layout 之后</text>
  <text x="572" y="286" text-anchor="middle" font-size="13" fill="#1d6b40" font-family="Consolas, monospace">size = 400×175（物理）</text>
  <text x="572" y="306" text-anchor="middle" font-size="10.5" fill="#4a463f">× inverse_scale_factor(0.8)</text>
  <text x="572" y="322" text-anchor="middle" font-size="10.5" fill="#4a463f">= 320×140 逻辑像素</text>

  <text x="440" y="450" text-anchor="middle" font-size="11.5" fill="#7a7468">要读“本帧最新”的账，就把系统排进 PostUpdate、.after(UiSystems::Layout)；在 Update 里读，永远晚一拍</text>
</svg>
