<svg viewBox="0 0 780 500" xmlns="http://www.w3.org/2000/svg" font-family="system-ui, 'Segoe UI', 'Microsoft YaHei', sans-serif">
  <rect x="0" y="0" width="780" height="500" rx="10" fill="#f7f5f0"/>
  <text x="390" y="32" text-anchor="middle" font-size="17" fill="#4a463f" font-weight="bold">盒模型——从里到外四层皮</text>

  <!-- margin：虚线外圈（不属于节点本体） -->
  <rect x="90" y="100" width="420" height="300" rx="4" fill="none" stroke="#9a9280" stroke-width="1.8" stroke-dasharray="7 5"/>
  <!-- border：有厚度的一圈 -->
  <rect x="130" y="140" width="340" height="220" fill="#c99f47" stroke="#8a6a1e" stroke-width="1.2"/>
  <!-- padding -->
  <rect x="146" y="156" width="308" height="188" fill="#efe6d2"/>
  <!-- content -->
  <rect x="190" y="200" width="220" height="100" fill="#8fbdb9" stroke="#5f938f" stroke-width="1.2"/>
  <text x="300" y="243" text-anchor="middle" font-size="13.5" fill="#274b48" font-weight="bold">content 内容区</text>
  <text x="300" y="264" text-anchor="middle" font-size="10.5" fill="#3c625f">子节点和文字住这儿</text>

  <!-- 四层的名字（画在各自的皮上） -->
  <text x="108" y="126" font-size="11.5" fill="#7a7468" font-weight="bold">margin</text>
  <text x="300" y="151.5" text-anchor="middle" font-size="11" fill="#5c4712" font-weight="bold">border</text>
  <text x="300" y="184" text-anchor="middle" font-size="11.5" fill="#8a7a52" font-weight="bold">padding</text>

  <!-- 右侧字段注记 -->
  <circle cx="496" cy="120" r="3" fill="#7a7468"/>
  <path d="M496,120 L556,120" stroke="#9a9280" stroke-width="1.3" fill="none"/>
  <text x="562" y="117" font-size="12.5" fill="#4a463f" font-weight="bold">margin（外距）</text>
  <text x="562" y="134" font-size="10.5" fill="#7a7468">Node.margin——让给邻居的</text>
  <text x="562" y="149" font-size="10.5" fill="#7a7468">空地，不算自家尺寸</text>

  <circle cx="462" cy="205" r="3" fill="#8a6a1e"/>
  <path d="M462,205 L556,205" stroke="#9a9280" stroke-width="1.3" fill="none"/>
  <text x="562" y="202" font-size="12.5" fill="#4a463f" font-weight="bold">border（边框）</text>
  <text x="562" y="219" font-size="10.5" fill="#7a7468">厚度归 Node.border，</text>
  <text x="562" y="234" font-size="10.5" fill="#7a7468">颜色归 BorderColor 组件</text>

  <circle cx="430" cy="290" r="3" fill="#8a7a52"/>
  <path d="M430,290 L556,290" stroke="#9a9280" stroke-width="1.3" fill="none"/>
  <text x="562" y="287" font-size="12.5" fill="#4a463f" font-weight="bold">padding（内衬）</text>
  <text x="562" y="304" font-size="10.5" fill="#7a7468">Node.padding——内容与</text>
  <text x="562" y="319" font-size="10.5" fill="#7a7468">边框之间的衬垫，算自家地皮</text>

  <!-- 底注 -->
  <text x="390" y="446" text-anchor="middle" font-size="11.5" fill="#7a7468">margin 画成虚线：它只是四邻之间让出的空地，不属于节点本体</text>
  <text x="390" y="470" text-anchor="middle" font-size="11.5" fill="#7a7468">width/height 量到哪层皮，归 box_sizing 说了算——默认 BorderBox，量到边框外沿</text>
</svg>
